<svg width="1101" height="667" viewBox="0 0 1101 667" fill="none" xmlns="http://www.w3.org/2000/svg">
<path d="M633.929 250.399C654.03 250.399 670.325 234.104 670.325 214.003C670.325 193.902 654.03 177.607 633.929 177.607C613.829 177.607 597.534 193.902 597.534 214.003C597.534 234.104 613.829 250.399 633.929 250.399Z" fill="#2F2E41"/>
<path d="M644.069 178.609C650.368 178.61 656.559 180.245 662.036 183.355C667.514 186.465 672.091 190.943 675.319 196.351C678.548 201.759 680.318 207.913 680.456 214.21C680.595 220.507 679.097 226.733 676.109 232.278C679.264 228.33 681.562 223.768 682.857 218.882C684.152 213.997 684.415 208.896 683.63 203.903C682.844 198.911 681.027 194.136 678.294 189.885C675.561 185.633 671.973 181.998 667.757 179.21C663.542 176.422 658.792 174.543 653.81 173.692C648.828 172.841 643.723 173.038 638.822 174.269C633.92 175.5 629.328 177.738 625.339 180.842C621.351 183.946 618.052 187.846 615.654 192.295C619.056 188.024 623.378 184.575 628.298 182.205C633.218 179.836 638.609 178.606 644.069 178.609V178.609Z" fill="#2F2E41"/>
<path d="M565.919 213.926C624.965 213.926 672.831 166.059 672.831 107.013C672.831 47.9671 624.965 0.100708 565.919 0.100708C506.873 0.100708 459.006 47.9671 459.006 107.013C459.006 166.059 506.873 213.926 565.919 213.926Z" fill="#2F2E41"/>
<path d="M482.01 40.6791C500.432 19.9612 526.183 7.21094 553.827 5.11942C581.472 3.0279 608.848 11.7587 630.177 29.4692C629.303 28.6381 628.438 27.8003 627.529 26.9927C606.336 8.16129 578.532 -1.48151 550.23 0.185046C521.928 1.8516 495.447 14.691 476.611 35.8796C457.775 57.0682 448.126 84.8708 449.786 113.173C451.446 141.475 464.279 167.959 485.463 186.8C486.372 187.608 487.305 188.368 488.233 189.139C468.146 170.031 456.269 143.867 455.107 116.167C453.946 88.468 463.593 61.4011 482.01 40.6791V40.6791Z" fill="#2F2E41"/>
<path d="M565.013 213.02C603.042 213.02 633.872 182.191 633.872 144.161C633.872 106.131 603.042 75.3019 565.013 75.3019C526.983 75.3019 496.154 106.131 496.154 144.161C496.154 182.191 526.983 213.02 565.013 213.02Z" fill="#FFB8B8"/>
<path d="M516.087 165.906C516.087 165.906 525.147 249.261 510.65 258.322C496.154 267.382 594.006 280.066 594.006 280.066C594.006 280.066 579.509 189.463 615.751 165.906H516.087Z" fill="#FFB8B8"/>
<path d="M603.066 243.825C603.066 243.825 630.049 231.225 591.189 235.713C552.328 240.201 518.801 222.986 518.801 222.986C518.801 222.986 507.026 211.208 505.214 223.892C503.402 236.577 510.65 260.134 470.785 263.758C430.919 267.382 394.678 256.509 380.181 283.691C365.684 310.872 372.933 428.657 372.933 428.657C372.933 428.657 400.114 526.509 421.859 541.005C443.604 555.502 633.872 535.569 633.872 535.569L688.234 437.717V323.556C688.234 323.556 680.986 283.691 630.247 294.563C630.247 294.563 597.63 287.315 599.442 271.006C601.254 254.697 603.066 243.825 603.066 243.825Z" fill="#006CFF"/>
<path d="M429.05 610.254C430.17 605.374 430.92 602.614 430.92 602.614L430.34 598.644L424.37 558.104L421.86 541.004C443.6 531.944 449.04 490.264 449.04 490.264L449.86 489.774L453.57 487.554V487.544L466.89 479.554L467.16 479.394L472.54 482.974L483.47 490.264C521.71 518.384 560.65 517.884 584.68 513.454C599.37 510.744 608.5 506.574 608.5 506.574L634.86 497.784L635.68 497.514L636.49 497.634L651.95 499.974L652.23 500.024L653.51 500.214L649.93 524.964L644.74 560.934C658.45 568.194 670.64 581.834 681.3 598.644C683.66 602.364 685.947 606.234 688.16 610.254C691.04 615.454 693.79 620.864 696.41 626.404C696.73 627.064 697.04 627.734 697.35 628.404C698.36 630.574 699.36 632.764 700.33 634.964H424.25C424.61 632.754 424.97 630.644 425.32 628.614C425.338 628.545 425.352 628.474 425.36 628.404C425.49 627.724 425.61 627.064 425.72 626.404C426.94 619.804 428.12 614.294 429.05 610.254Z" fill="#2F2E41"/>
<path d="M418.234 261.946C418.234 261.946 438.167 298.187 430.919 343.489C423.671 388.791 452.664 501.14 452.664 501.14L474.409 495.704C474.409 495.704 459.912 401.476 463.536 379.731C467.16 357.986 467.16 272.818 449.04 261.946C430.919 251.073 418.234 261.946 418.234 261.946Z" fill="#2F2E41"/>
<path d="M628.973 299.608L636.59 500.234L651.086 509.294C651.086 509.294 671.925 289.127 661.053 289.127H638.93C637.578 289.127 636.24 289.402 634.997 289.935C633.754 290.469 632.633 291.25 631.702 292.23C630.77 293.21 630.048 294.37 629.579 295.638C629.11 296.907 628.904 298.257 628.973 299.608V299.608Z" fill="#2F2E41"/>
<path d="M462.63 496.61C467.634 496.61 471.691 492.553 471.691 487.549C471.691 482.545 467.634 478.489 462.63 478.489C457.627 478.489 453.57 482.545 453.57 487.549C453.57 492.553 457.627 496.61 462.63 496.61Z" fill="#6C63FF"/>
<path d="M643.838 505.67C648.842 505.67 652.898 501.613 652.898 496.61C652.898 491.606 648.842 487.549 643.838 487.549C638.834 487.549 634.778 491.606 634.778 496.61C634.778 501.613 638.834 505.67 643.838 505.67Z" fill="#6C63FF"/>
<path d="M506.12 58.0867V126.946H522.067L542.362 105.201L539.644 126.946H610.133L605.784 105.201L614.482 126.946H625.717V58.0867H506.12Z" fill="#2F2E41"/>
<path d="M495.248 139.631C498.25 139.631 500.684 135.168 500.684 129.664C500.684 124.16 498.25 119.698 495.248 119.698C492.245 119.698 489.812 124.16 489.812 129.664C489.812 135.168 492.245 139.631 495.248 139.631Z" fill="#FFB8B8"/>
<path d="M634.778 139.631C637.78 139.631 640.214 135.168 640.214 129.664C640.214 124.16 637.78 119.698 634.778 119.698C631.775 119.698 629.341 124.16 629.341 129.664C629.341 135.168 631.775 139.631 634.778 139.631Z" fill="#FFB8B8"/>
<path d="M671.925 495.703C671.925 495.703 589.476 480.301 584.039 507.482C578.603 534.663 675.549 522.885 675.549 522.885L671.925 495.703Z" fill="#FFB8B8"/>
<path d="M670.113 309.06C670.113 309.06 867.63 466.71 831.388 504.764C795.147 542.818 657.429 531.945 657.429 531.945L666.489 486.643L746.22 477.583L706.355 437.717L670.113 441.341V309.06Z" fill="#006CFF"/>
<path d="M378.369 571.811L403.738 591.744C403.738 591.744 421.859 647.918 449.04 631.609C476.221 615.301 423.671 557.314 423.671 557.314L392.866 546.442L378.369 571.811Z" fill="#FFB8B8"/>
<path d="M403.738 280.066L378.437 287.68C378.437 287.68 202.597 417.784 195.349 454.026C188.101 490.267 229.778 510.2 229.778 510.2L387.429 584.495L403.738 541.005L329.443 502.952C329.443 502.952 334.879 492.079 313.134 490.267C291.389 488.455 287.765 464.898 287.765 464.898C287.765 464.898 331.255 397.851 354.812 412.348C378.369 426.845 385.617 437.717 385.617 437.717L403.738 280.066Z" fill="#006CFF"/>
<path d="M764.6 616.464V622.534C764.603 624.199 764.295 625.851 763.69 627.404C763.421 628.095 763.097 628.764 762.72 629.404C761.528 631.404 759.837 633.061 757.812 634.211C755.787 635.361 753.499 635.965 751.17 635.964H304.62C302.291 635.965 300.003 635.361 297.978 634.211C295.953 633.061 294.262 631.404 293.07 629.404C292.693 628.764 292.369 628.095 292.1 627.404C291.495 625.851 291.187 624.199 291.19 622.534V616.464C291.189 614.7 291.537 612.953 292.211 611.324C292.886 609.694 293.875 608.213 295.122 606.966C296.37 605.719 297.85 604.73 299.48 604.055C301.11 603.38 302.856 603.033 304.62 603.034H330.36V600.204C330.36 600.13 330.374 600.057 330.402 599.989C330.43 599.921 330.472 599.859 330.524 599.807C330.576 599.755 330.638 599.714 330.706 599.686C330.774 599.658 330.846 599.643 330.92 599.644H344.35C344.424 599.643 344.496 599.658 344.564 599.686C344.632 599.714 344.694 599.755 344.746 599.807C344.798 599.859 344.839 599.921 344.868 599.989C344.896 600.057 344.91 600.13 344.91 600.204V603.034H353.3V600.204C353.3 600.13 353.314 600.057 353.342 599.989C353.37 599.921 353.412 599.859 353.464 599.807C353.516 599.755 353.578 599.714 353.646 599.686C353.714 599.658 353.786 599.643 353.86 599.644H367.29C367.364 599.643 367.436 599.658 367.504 599.686C367.572 599.714 367.634 599.755 367.686 599.807C367.738 599.859 367.779 599.921 367.808 599.989C367.836 600.057 367.85 600.13 367.85 600.204V603.034H376.25V600.204C376.25 600.13 376.264 600.057 376.292 599.989C376.32 599.921 376.362 599.859 376.414 599.807C376.466 599.755 376.528 599.714 376.596 599.686C376.664 599.658 376.736 599.643 376.81 599.644H390.24C390.314 599.643 390.386 599.658 390.454 599.686C390.522 599.714 390.584 599.755 390.636 599.807C390.688 599.859 390.729 599.921 390.758 599.989C390.786 600.057 390.8 600.13 390.8 600.204V603.034H399.19V600.204C399.19 600.13 399.204 600.057 399.232 599.989C399.26 599.921 399.302 599.859 399.354 599.807C399.406 599.755 399.468 599.714 399.536 599.686C399.604 599.658 399.676 599.643 399.75 599.644H413.18C413.254 599.643 413.326 599.658 413.394 599.686C413.462 599.714 413.524 599.755 413.576 599.807C413.628 599.859 413.67 599.921 413.698 599.989C413.726 600.057 413.74 600.13 413.74 600.204V603.034H422.13V600.204C422.13 600.13 422.144 600.057 422.172 599.989C422.2 599.921 422.242 599.859 422.294 599.807C422.346 599.755 422.408 599.714 422.476 599.686C422.544 599.658 422.616 599.643 422.69 599.644H436.12C436.194 599.643 436.266 599.658 436.334 599.686C436.402 599.714 436.464 599.755 436.516 599.807C436.568 599.859 436.61 599.921 436.638 599.989C436.666 600.057 436.68 600.13 436.68 600.204V603.034H445.08V600.204C445.08 600.13 445.094 600.057 445.122 599.989C445.15 599.921 445.192 599.859 445.244 599.807C445.296 599.755 445.358 599.714 445.426 599.686C445.494 599.658 445.566 599.643 445.64 599.644H459.07C459.144 599.643 459.216 599.658 459.284 599.686C459.352 599.714 459.414 599.755 459.466 599.807C459.518 599.859 459.559 599.921 459.588 599.989C459.616 600.057 459.63 600.13 459.63 600.204V603.034H468.02V600.204C468.02 600.13 468.034 600.057 468.062 599.989C468.09 599.921 468.132 599.859 468.184 599.807C468.236 599.755 468.298 599.714 468.366 599.686C468.434 599.658 468.506 599.643 468.58 599.644H573.78C573.854 599.643 573.926 599.658 573.994 599.686C574.062 599.714 574.124 599.755 574.176 599.807C574.228 599.859 574.269 599.921 574.298 599.989C574.326 600.057 574.34 600.13 574.34 600.204V603.034H582.74V600.204C582.74 600.13 582.754 600.057 582.782 599.989C582.81 599.921 582.852 599.859 582.904 599.807C582.956 599.755 583.018 599.714 583.086 599.686C583.154 599.658 583.226 599.643 583.3 599.644H596.73C596.878 599.645 597.02 599.704 597.124 599.809C597.229 599.914 597.289 600.055 597.29 600.204V603.034H605.68V600.204C605.68 600.13 605.694 600.057 605.722 599.989C605.75 599.921 605.792 599.859 605.844 599.807C605.896 599.755 605.958 599.714 606.026 599.686C606.094 599.658 606.166 599.643 606.24 599.644H619.67C619.744 599.643 619.816 599.658 619.884 599.686C619.952 599.714 620.014 599.755 620.066 599.807C620.118 599.859 620.159 599.921 620.188 599.989C620.216 600.057 620.23 600.13 620.23 600.204V603.034H628.62V600.204C628.62 600.13 628.634 600.057 628.662 599.989C628.69 599.921 628.732 599.859 628.784 599.807C628.836 599.755 628.898 599.714 628.966 599.686C629.034 599.658 629.106 599.643 629.18 599.644H642.61C642.684 599.643 642.756 599.658 642.824 599.686C642.892 599.714 642.954 599.755 643.006 599.807C643.058 599.859 643.099 599.921 643.128 599.989C643.156 600.057 643.17 600.13 643.17 600.204V603.034H651.57V600.204C651.57 600.13 651.584 600.057 651.612 599.989C651.64 599.921 651.682 599.859 651.734 599.807C651.786 599.755 651.847 599.714 651.915 599.686C651.983 599.658 652.056 599.643 652.13 599.644H665.56C665.707 599.645 665.847 599.705 665.95 599.81C666.053 599.915 666.111 600.057 666.11 600.204V603.034H674.51V600.204C674.51 600.13 674.524 600.057 674.552 599.989C674.58 599.921 674.622 599.859 674.674 599.807C674.726 599.755 674.788 599.714 674.855 599.686C674.923 599.658 674.996 599.643 675.07 599.644H688.5C688.574 599.643 688.646 599.658 688.714 599.686C688.782 599.714 688.844 599.755 688.896 599.807C688.948 599.859 688.99 599.921 689.018 599.989C689.046 600.057 689.06 600.13 689.06 600.204V603.034H697.45V600.204C697.45 600.13 697.464 600.057 697.492 599.989C697.52 599.921 697.562 599.859 697.614 599.807C697.666 599.755 697.728 599.714 697.796 599.686C697.863 599.658 697.936 599.643 698.01 599.644H711.44C711.514 599.643 711.586 599.658 711.654 599.686C711.722 599.714 711.784 599.755 711.836 599.807C711.888 599.859 711.93 599.921 711.958 599.989C711.986 600.057 712 600.13 712 600.204V603.034H751.17C752.934 603.033 754.68 603.38 756.31 604.055C757.94 604.73 759.42 605.719 760.667 606.966C761.915 608.213 762.904 609.694 763.579 611.324C764.253 612.953 764.6 614.7 764.6 616.464V616.464Z" fill="#3F3D56"/>
<path d="M894.448 627.399H161.448V629.399H894.448V627.399Z" fill="#3F3D56"/>
<path d="M728.643 360.829H562.2V357.399H486.728V360.829H319.599C316.613 360.829 313.749 362.016 311.638 364.127C309.527 366.238 308.34 369.102 308.34 372.088V599.999C308.34 602.985 309.527 605.849 311.638 607.96C313.749 610.072 316.613 611.258 319.599 611.258H728.643C731.628 611.258 734.492 610.072 736.604 607.96C738.715 605.849 739.901 602.985 739.901 599.999V372.088C739.901 370.609 739.61 369.145 739.044 367.779C738.478 366.414 737.649 365.172 736.604 364.127C735.558 363.081 734.317 362.252 732.951 361.686C731.585 361.121 730.121 360.829 728.643 360.829V360.829Z" fill="#3F3D56"/>
<path d="M524.448 465.399C538.255 465.399 549.448 454.206 549.448 440.399C549.448 426.592 538.255 415.399 524.448 415.399C510.641 415.399 499.448 426.592 499.448 440.399C499.448 454.206 510.641 465.399 524.448 465.399Z" stroke="#D0CDE1" stroke-width="2" stroke-miterlimit="10"/>
<path d="M516.448 474.399C530.255 474.399 541.448 463.206 541.448 449.399C541.448 435.592 530.255 424.399 516.448 424.399C502.641 424.399 491.448 435.592 491.448 449.399C491.448 463.206 502.641 474.399 516.448 474.399Z" fill="#D0CDE1"/>
<path d="M215.02 663.533H26.0203V665.795H215.02V663.533Z" fill="#3F3D56"/>
<path d="M1040.02 663.533H851.02V665.795H1040.02V663.533Z" fill="#3F3D56"/>
<path d="M136.139 590.7C116.228 623.206 123.079 663.641 123.079 663.641C123.079 663.641 162.211 651.372 182.122 618.866C202.033 586.359 195.183 545.925 195.183 545.925C195.183 545.925 156.05 558.193 136.139 590.7Z" fill="#3F3D56"/>
<path d="M122.266 663.909L121.134 663.73C120.724 663.665 79.9757 656.913 55.5716 627.715C31.1673 598.516 31.7546 557.215 31.7626 556.802L31.7869 555.656L32.919 555.835C33.3284 555.9 74.077 562.652 98.4813 591.851C122.885 621.049 122.298 662.35 122.29 662.764L122.266 663.909Z" fill="#006CFF"/>
<path d="M123.874 664.937L122.78 664.594C122.384 664.47 83.0592 651.839 63.1822 619.388C43.3053 586.937 49.9195 546.166 49.9879 545.758L50.1793 544.628L51.2731 544.97C51.6686 545.094 90.9938 557.726 110.871 590.177C130.748 622.628 124.133 663.399 124.065 663.807L123.874 664.937ZM51.7926 547.26C50.8874 554.102 47.279 589.595 64.8874 618.344C82.4967 647.091 115.755 660.002 122.26 662.305C123.166 655.463 126.774 619.969 109.166 591.222C91.5563 562.474 58.2985 549.563 51.7926 547.26H51.7926Z" fill="#3F3D56"/>
<path d="M124.321 558.31C136.471 558.31 146.321 548.461 146.321 536.31C146.321 524.16 136.471 514.31 124.321 514.31C112.171 514.31 102.321 524.16 102.321 536.31C102.321 548.461 112.171 558.31 124.321 558.31Z" fill="#3F3D56"/>
<path d="M399.789 258.237L273.582 131.034H214V129.034H274.417L274.711 129.331L401.211 256.831L399.789 258.237Z" fill="#3F3D56"/>
<path d="M696.211 254.237L822.417 127.034H882V125.034H821.582L821.289 125.331L694.789 252.831L696.211 254.237Z" fill="#3F3D56"/>
<path d="M146 68.3223H0V97.1994H146V68.3223Z" fill="#D0CDE1"/>
<path d="M146 112.634H0V141.511H146V112.634Z" fill="#D0CDE1"/>
<path d="M146 156.945H0V185.822H146V156.945Z" fill="#D0CDE1"/>
<path opacity="0.15" d="M60.3988 68.3223H0V97.1994H60.3988V68.3223Z" fill="black"/>
<path opacity="0.15" d="M19.5536 112.634H0V141.511H19.5536V112.634Z" fill="black"/>
<path opacity="0.15" d="M97.3333 156.945H0V185.822H97.3333V156.945Z" fill="black"/>
<path d="M1101 74.8097H954.776V87.8395H1101V74.8097Z" fill="#D0CDE1"/>
<path d="M928.955 73.1232H900V102.078H928.955V73.1232Z" fill="#006CFF"/>
<path d="M928.955 116.556H900V145.511H928.955V116.556Z" fill="#006CFF"/>
<path d="M928.955 159.989H900V188.944H928.955V159.989Z" fill="#006CFF"/>
<path d="M936.955 96.0785H906V65.1229H936.955V96.0785ZM908 94.0785H934.955V67.1229H908V94.0785Z" fill="#3F3D56"/>
<path d="M1101 118.243H954.776V131.272H1101V118.243Z" fill="#D0CDE1"/>
<path d="M936.955 139.511H906V108.556H936.955V139.511ZM908 137.511H934.955V110.556H908V137.511Z" fill="#3F3D56"/>
<path d="M1101 161.675H954.776V174.705H1101V161.675Z" fill="#D0CDE1"/>
<path d="M936.955 182.944H906V151.989H936.955V182.944ZM908 180.944H934.955V153.989H908V180.944Z" fill="#3F3D56"/>
<path d="M189 99.0336C197.837 99.0336 205 91.8701 205 83.0336C205 74.197 197.837 67.0336 189 67.0336C180.163 67.0336 173 74.197 173 83.0336C173 91.8701 180.163 99.0336 189 99.0336Z" fill="#006CFF"/>
<path d="M189 147.034C197.837 147.034 205 139.87 205 131.034C205 122.197 197.837 115.034 189 115.034C180.163 115.034 173 122.197 173 131.034C173 139.87 180.163 147.034 189 147.034Z" fill="#006CFF"/>
<path d="M189 190.034C197.837 190.034 205 182.87 205 174.034C205 165.197 197.837 158.034 189 158.034C180.163 158.034 173 165.197 173 174.034C173 182.87 180.163 190.034 189 190.034Z" fill="#006CFF"/>
<path d="M181 96.0336C177.638 96.0336 174.351 95.0365 171.555 93.1686C168.76 91.3006 166.581 88.6455 165.294 85.5392C164.007 82.4329 163.671 79.0147 164.327 75.717C164.983 72.4194 166.602 69.3903 168.979 67.0128C171.357 64.6353 174.386 63.0162 177.683 62.3602C180.981 61.7043 184.399 62.0409 187.506 63.3276C190.612 64.6143 193.267 66.7932 195.135 69.5889C197.003 72.3845 198 75.6713 198 79.0336C197.995 83.5407 196.202 87.8618 193.015 91.0488C189.828 94.2359 185.507 96.0286 181 96.0336V96.0336ZM181 64.0336C178.033 64.0336 175.133 64.9133 172.666 66.5615C170.2 68.2098 168.277 70.5524 167.142 73.2933C166.006 76.0342 165.709 79.0502 166.288 81.9599C166.867 84.8696 168.296 87.5424 170.393 89.6402C172.491 91.738 175.164 93.1666 178.074 93.7454C180.983 94.3241 183.999 94.0271 186.74 92.8918C189.481 91.7565 191.824 89.8339 193.472 87.3671C195.12 84.9004 196 82.0003 196 79.0336C195.996 75.0567 194.414 71.244 191.602 68.4319C188.79 65.6199 184.977 64.0381 181 64.0336V64.0336Z" fill="#3F3D56"/>
<path d="M181 144.034C177.638 144.034 174.351 143.037 171.555 141.169C168.76 139.301 166.581 136.646 165.294 133.539C164.007 130.433 163.671 127.015 164.327 123.717C164.983 120.419 166.602 117.39 168.979 115.013C171.357 112.635 174.386 111.016 177.683 110.36C180.981 109.704 184.399 110.041 187.506 111.328C190.612 112.614 193.267 114.793 195.135 117.589C197.003 120.385 198 123.671 198 127.034C197.995 131.541 196.202 135.862 193.015 139.049C189.828 142.236 185.507 144.029 181 144.034V144.034ZM181 112.034C178.033 112.034 175.133 112.913 172.666 114.562C170.2 116.21 168.277 118.552 167.142 121.293C166.006 124.034 165.709 127.05 166.288 129.96C166.867 132.87 168.296 135.542 170.393 137.64C172.491 139.738 175.164 141.167 178.074 141.745C180.983 142.324 183.999 142.027 186.74 140.892C189.481 139.756 191.824 137.834 193.472 135.367C195.12 132.9 196 130 196 127.034C195.996 123.057 194.414 119.244 191.602 116.432C188.79 113.62 184.977 112.038 181 112.034Z" fill="#3F3D56"/>
<path d="M181 187.034C177.638 187.034 174.351 186.037 171.555 184.169C168.76 182.301 166.581 179.646 165.294 176.539C164.007 173.433 163.671 170.015 164.327 166.717C164.983 163.419 166.602 160.39 168.979 158.013C171.357 155.635 174.386 154.016 177.683 153.36C180.981 152.704 184.399 153.041 187.506 154.328C190.612 155.614 193.267 157.793 195.135 160.589C197.003 163.385 198 166.671 198 170.034C197.995 174.541 196.202 178.862 193.015 182.049C189.828 185.236 185.507 187.029 181 187.034V187.034ZM181 155.034C178.033 155.034 175.133 155.913 172.666 157.562C170.2 159.21 168.277 161.552 167.142 164.293C166.006 167.034 165.709 170.05 166.288 172.96C166.867 175.87 168.296 178.542 170.393 180.64C172.491 182.738 175.164 184.167 178.074 184.745C180.983 185.324 183.999 185.027 186.74 183.892C189.481 182.756 191.824 180.834 193.472 178.367C195.12 175.9 196 173 196 170.034C195.996 166.057 194.414 162.244 191.602 159.432C188.79 156.62 184.977 155.038 181 155.034V155.034Z" fill="#3F3D56"/>
<path d="M989 596.034H987V581.034C987.001 580.238 987.317 579.476 987.88 578.913C988.442 578.351 989.205 578.034 990 578.034H995C995.265 578.033 995.519 577.928 995.707 577.74C995.894 577.553 996 577.299 996 577.034V567.034C996 566.768 995.894 566.514 995.707 566.327C995.519 566.139 995.265 566.034 995 566.034H990C989.205 566.033 988.442 565.716 987.88 565.154C987.317 564.592 987.001 563.829 987 563.034V558.034C987 557.768 986.894 557.514 986.707 557.327C986.519 557.139 986.265 557.034 986 557.034H977C976.205 557.033 975.442 556.716 974.88 556.154C974.317 555.592 974.001 554.829 974 554.034V553.034C974 552.768 973.894 552.514 973.707 552.327C973.519 552.139 973.265 552.034 973 552.034H937C936.735 552.034 936.481 552.139 936.293 552.327C936.106 552.514 936 552.768 936 553.034V554.034C935.999 554.829 935.683 555.592 935.12 556.154C934.558 556.716 933.795 557.033 933 557.034H924C923.735 557.034 923.481 557.139 923.293 557.327C923.106 557.514 923 557.768 923 558.034V563.034C922.999 563.829 922.683 564.592 922.12 565.154C921.558 565.716 920.795 566.033 920 566.034H915C914.735 566.034 914.481 566.139 914.293 566.327C914.106 566.514 914 566.768 914 567.034V577.034C914 577.299 914.106 577.553 914.293 577.74C914.481 577.928 914.735 578.033 915 578.034H921C921.795 578.034 922.558 578.351 923.12 578.913C923.683 579.476 923.999 580.238 924 581.034V596.034H922V581.034C922 580.768 921.894 580.514 921.707 580.327C921.519 580.139 921.265 580.034 921 580.034H915C914.205 580.033 913.442 579.716 912.88 579.154C912.317 578.592 912.001 577.829 912 577.034V567.034C912.001 566.238 912.317 565.476 912.88 564.913C913.442 564.351 914.205 564.034 915 564.034H920C920.265 564.033 920.519 563.928 920.707 563.74C920.894 563.553 921 563.299 921 563.034V558.034C921.001 557.238 921.317 556.476 921.88 555.913C922.442 555.351 923.205 555.034 924 555.034H933C933.265 555.033 933.519 554.928 933.707 554.74C933.894 554.553 934 554.299 934 554.034V553.034C934.001 552.238 934.317 551.476 934.88 550.913C935.442 550.351 936.205 550.034 937 550.034H973C973.795 550.034 974.558 550.351 975.12 550.913C975.683 551.476 975.999 552.238 976 553.034V554.034C976 554.299 976.106 554.553 976.293 554.74C976.481 554.928 976.735 555.033 977 555.034H986C986.795 555.034 987.558 555.351 988.12 555.913C988.683 556.476 988.999 557.238 989 558.034V563.034C989 563.299 989.106 563.553 989.293 563.74C989.481 563.928 989.735 564.033 990 564.034H995C995.795 564.034 996.558 564.351 997.12 564.913C997.683 565.476 997.999 566.238 998 567.034V577.034C997.999 577.829 997.683 578.592 997.12 579.154C996.558 579.716 995.795 580.033 995 580.034H990C989.735 580.034 989.481 580.139 989.293 580.327C989.106 580.514 989 580.768 989 581.034V596.034Z" fill="#3F3D56"/>
<path d="M986 666.033H925C924.205 666.033 923.442 665.716 922.88 665.154C922.317 664.591 922.001 663.829 922 663.033V620.033H924V663.033C924 663.299 924.106 663.553 924.293 663.74C924.481 663.928 924.735 664.033 925 664.033H986C986.265 664.033 986.519 663.928 986.707 663.74C986.894 663.553 987 663.299 987 663.033V620.033H989V663.033C988.999 663.829 988.683 664.591 988.12 665.154C987.558 665.716 986.795 666.033 986 666.033V666.033Z" fill="#3F3D56"/>
<path d="M999 603.033H924C922.895 603.033 922 603.929 922 605.033V625.033C922 626.138 922.895 627.033 924 627.033H999C1000.1 627.033 1001 626.138 1001 625.033V605.033C1001 603.929 1000.1 603.033 999 603.033Z" fill="#006CFF"/>
<path d="M992.5 621.033H917.5C916.705 621.033 915.942 620.716 915.38 620.154C914.817 619.591 914.501 618.829 914.5 618.033V598.033C914.501 597.238 914.817 596.476 915.38 595.913C915.942 595.351 916.705 595.034 917.5 595.033H992.5C993.295 595.034 994.058 595.351 994.62 595.913C995.183 596.476 995.499 597.238 995.5 598.033V618.033C995.499 618.829 995.183 619.591 994.62 620.154C994.058 620.716 993.295 621.033 992.5 621.033ZM917.5 597.033C917.235 597.034 916.981 597.139 916.793 597.327C916.606 597.514 916.5 597.768 916.5 598.033V618.033C916.5 618.299 916.606 618.553 916.793 618.74C916.981 618.928 917.235 619.033 917.5 619.033H992.5C992.765 619.033 993.019 618.928 993.207 618.74C993.394 618.553 993.5 618.299 993.5 618.033V598.033C993.5 597.768 993.394 597.514 993.207 597.327C993.019 597.139 992.765 597.034 992.5 597.033H917.5Z" fill="#3F3D56"/>
<path d="M953 543.034C950.342 525.126 949.639 506.982 950.905 488.922L953 459.034C941.458 481.999 944.067 512.226 953 543.034V543.034Z" fill="#D0CDE1"/>
<path d="M962 548.034C960.72 537.348 960.383 526.57 960.992 515.825L962 498.034C956.447 511.704 957.702 529.696 962 548.034Z" fill="#D0CDE1"/>
</svg>
